<?xml version="1.0" encoding="UTF-8"?>
<svg xmlns="http://www.w3.org/2000/svg" viewBox="0 0 752.39 752.39">
  <defs>
    <style>
      .cls-1 {
        letter-spacing: .13em;
      }

      .cls-2 {
        fill: #4a584c;
      }

      .cls-3 {
        letter-spacing: .1em;
      }

      .cls-4 {
        letter-spacing: .2em;
      }

      .cls-5 {
        font-family: Raleway-ExtraBold, Raleway;
        font-size: 135.02px;
        letter-spacing: .05em;
      }

      .cls-5, .cls-6 {
        font-weight: 700;
      }

      .cls-5, .cls-6, .cls-7 {
        fill: #6b3849;
      }

      .cls-8 {
        fill: none;
      }

      .cls-9 {
        fill: #e4a76d;
      }

      .cls-6 {
        font-family: Raleway-Bold, Raleway;
        font-size: 29.46px;
      }

      .cls-10 {
        letter-spacing: .18em;
      }

      .cls-11 {
        letter-spacing: .17em;
      }

      .cls-12 {
        letter-spacing: .15em;
      }

      .cls-13 {
        letter-spacing: .2em;
      }

      .cls-14 {
        letter-spacing: .09em;
      }

      .cls-7 {
        font-family: Raleway-Medium, Raleway;
        font-size: 19.74px;
        font-weight: 500;
      }

      .cls-15 {
        letter-spacing: .19em;
      }
    </style>
  </defs>
  <g id="OBJECTS">
    <g>
      <rect class="cls-9" x="209.81" y="497.47" width="332.56" height="2.73"/>
      <path class="cls-9" d="M499.12,425.44c-2.84-1.7-7.49-1.7-10.32,0l-20.03,12.01c-2.84,1.7-7.3,1.44-9.92-.59l-22.82-17.67c-2.62-2.03-6.9-2.03-9.52,0l-17.17,13.29c-2.62,2.03-6.65,1.74-8.95-.64l-20.11-20.73c-2.3-2.38-6.08-2.38-8.38,0l-20.11,20.73c-2.3,2.38-6.33,2.66-8.95.64l-17.17-13.29c-2.62-2.03-6.9-2.03-9.52,0l-22.82,17.67c-2.62,2.03-7.08,2.29-9.92.59l-20.03-12.01c-2.84-1.7-7.49-1.7-10.32,0l-42.17,25.28c-2.84,1.7-2.45,3.09.86,3.09h328.71c3.31,0,3.7-1.39.86-3.09l-42.17-25.28Z"/>
      <g>
        <path class="cls-2" d="M240.88,399.64c-6.51-68.26,15.48-113.58,27.58-132.8-.32-.11-.63-.25-.96-.35-3.84-1.08-7.39-1.42-10.79-.98-12.27,16.16-37.84,59.78-28.46,134.1,1.55,12.24,3.45,23.48,5.58,33.83l10.43-6.25c-1.29-8.53-2.44-17.68-3.38-27.56Z"/>
        <path class="cls-2" d="M226.04,399.91c-9.1-72.11,14.43-115.76,27.4-133.7-4.28,1.27-8.36,3.97-12.48,8.3l-2.83-8.88-2.12.67,3.23,10.13c-2.03,2.34-4.07,5.04-6.16,8.21-.22.33-.43.7-.65,1.06l-4.35-6.81-1.87,1.2,4.98,7.78c-5.77,10.71-11.29,29.82-14.43,51.18-6.66-1.56-15.42-5.12-15.49-13.08-.04-4.96,1.99-11.03,3.61-16.86l10.71-2.02-.41-2.18-9.65,1.82c.66-2.58,1.18-5.09,1.31-7.38l7.26-7.11-1.56-1.59-5.8,5.68c-.28-2.46-1.09-4.72-2.36-6.58-.36,4.79-.98,10.56-2.22,15.91-.43,1.86-.95,3.8-1.49,5.77-2.63,9.68-5.34,19.7,1.66,25.41,2.91,2.37,8.05,4.29,13.91,5.85-.1.74-.19,1.48-.28,2.22-6.26-1.65-11.82-3.73-15.03-6.35-8.13-6.62-5.09-17.82-2.41-27.71.53-1.95,1.05-3.86,1.47-5.69,1.39-6.05,2-12.7,2.31-17.77-.29-.26-.61-.47-.92-.7l2.57-7.15-2.09-.76-2.59,7.21c-3.76,8.77-16.03,39.4-8.91,50.29,4.38,6.7,14.43,11.06,24.99,13.88-.08.76-.15,1.52-.22,2.28-11.1-2.95-21.84-7.61-26.63-14.95-7.9-12.09,5.13-44.13,8.86-52.73-1.25-.32-2.58-.44-3.99-.33-3.71,5.5-20.16,31.82-11.53,54.36,3.96,10.33,19.55,15.67,32.88,18.39-.06.76-.11,1.52-.16,2.29-13.89-2.8-30.44-8.48-34.8-19.88-8.35-21.8,5.07-46.04,10.48-54.47-1.96.75-3.77,2.13-5.43,3.92l-2.8-8.78-2.12.67,3.23,10.14c-2.96,3.99-5.28,9.32-6.75,14.66l-4.86-6.97-1.83,1.27,5.97,8.57c-.04.18-.09.36-.13.54-1.07,5.09-2.71,11.26-2.93,17.72l-7.79-4.76-1.16,1.9,8.95,5.47c.07,2.44.39,4.9,1.05,7.34l-10.53-.45-.09,2.22,11.31.48c1.23,3.43,3.21,6.81,6.22,10.03,1.57,1.67,3.44,3.09,5.52,4.32l-5.47,7.51,1.8,1.31,5.64-7.74c8.31,4.22,19.04,5.7,26.43,6.21-.7,11.43-.58,22.9.65,33.56,1.94,16.82,4.78,31.62,8.61,45.22l8.05-4.83c-2.2-10.62-4.18-22.17-5.77-34.76Z"/>
        <path class="cls-2" d="M256.59,421.25c-.08-.52-.16-1.04-.24-1.57-6.66-46.85,4.25-84.56,12.21-112.09l1.31-4.55c4.29-14.94,5.42-25.36,5.57-31.8-.24-.24-.52-.43-.77-.66l7.12-7.44-1.61-1.54-7.22,7.55c-.77-.54-1.58-1.04-2.43-1.46-11.85,18.7-33.94,63.66-27.45,131.73.91,9.49,2,18.31,3.23,26.54l5.19-3.11c1.43-.86,3.2-1.4,5.09-1.61Z"/>
        <path class="cls-2" d="M267.48,424.39c-1.14-7.51-2.07-14.98-2.64-22.08,8.21,3.01,19.05,5.41,28.29,2.06,8.73-3.17,13.8-8.42,17.04-14.14l10.18,6.3,1.17-1.89-10.31-6.38c1.19-2.42,2.11-4.88,2.87-7.27l10.89,2.21.44-2.18-10.69-2.17c.63-2.17,1.16-4.24,1.7-6.13.38-1.31.68-2.67.94-4.04l10.97-4.5-.84-2.06-9.69,3.98c.82-6.16.35-12.36-2.23-16.52-.92,7.47-2.55,18.66-4.75,26.16-2.53,8.62-8.84,23.32-22.89,25.86-.19.04-.39.07-.58.09-6.6,1.02-15.16.38-22.6-.61-.06-.76-.12-1.53-.17-2.28,7.42,1.01,16.01,1.69,22.43.7,13.19-2.08,19.27-16.15,21.68-24.38,2.34-7.99,4.06-20.64,4.92-27.92-.24-.22-.52-.39-.78-.59l6.43-9.96-1.87-1.21-6.47,10.02c-.74-.35-1.5-.65-2.27-.87-1.01,4.58-2.12,9.68-3.09,14.31l-.12.56c-2.61,12.4-6.95,33.07-20.06,35.43-.13.02-.25.04-.38.06-4.63.7-12.86.48-20.64.02-.04-.75-.08-1.51-.11-2.25,7.75.47,15.95.7,20.41.02,11.85-1.78,16.09-21.8,18.6-33.75l.11-.56c.97-4.63,2.08-9.72,3.09-14.3-.49-.05-.98-.08-1.47-.08l-.92-11.05-2.22.19.92,11.04c-.7.11-1.4.25-2.08.45-2.29,4.57-3.98,11.14-5.05,19.68-1.47,11.77-3.61,20.99-16.35,23.71-.31.06-.62.13-.94.18-4.14.74-9.4.89-14.18.82,0-.75-.04-1.48-.03-2.23,5.04.07,10.64-.09,14.68-.95,10.38-2.21,12.98-8.79,14.61-21.81.94-7.51,2.34-13.51,4.22-18.11-2.32,1.29-4.33,3.17-5.74,5.55-1.06,1.79-1.83,3.93-2.46,6.24l-5.9-7.39-1.74,1.39,6.97,8.73c-.58,2.6-1.07,5.31-1.65,7.92l-6.93-4.62-1.23,1.85,7.62,5.07c-.63,2.44-1.39,4.71-2.47,6.63-3.59,6.37-12.9,6.41-19.88,5.39.44-13.68,2.61-28.31,5.45-41.66l11.74.42.08-2.22-11.34-.4c.67-3.03,1.36-5.98,2.08-8.84l11.07-2.25-.45-2.18-10.01,2.04c2.14-8.22,4.42-15.52,6.5-21.15,1.26-3.41,2.09-6.77,2.56-10l10.61.99.21-2.21-10.56-.99c.33-3.63.18-7.08-.42-10.25l9.88-4.37-.9-2.03-9.49,4.2c-.81-3.03-2.05-5.76-3.68-8.06-.37,6.67-1.73,16.47-5.58,29.88l-1.31,4.55c-7.91,27.34-18.74,64.79-12.14,111.16.09.61.19,1.21.28,1.82,2.26.09,4.41.66,6.09,1.67l2.56,1.53Z"/>
        <path class="cls-2" d="M523.92,399.62c9.38-74.32-16.18-117.94-28.46-134.1-3.4-.45-6.95-.1-10.79.98-.33.09-.64.24-.96.35,12.1,19.21,34.09,64.53,27.58,132.8-.94,9.88-2.09,19.03-3.38,27.56l10.43,6.25c2.13-10.35,4.03-21.59,5.58-33.83Z"/>
        <path class="cls-2" d="M589.03,336.37l-10.53.45c.66-2.45.97-4.91,1.05-7.34l8.95-5.47-1.16-1.9-7.79,4.76c-.22-6.46-1.86-12.63-2.93-17.72-.04-.18-.09-.36-.13-.54l5.97-8.57-1.83-1.27-4.86,6.97c-1.48-5.34-3.79-10.66-6.75-14.66l3.23-10.14-2.12-.67-2.8,8.78c-1.65-1.79-3.47-3.17-5.43-3.92,5.4,8.43,18.82,32.68,10.48,54.47-4.36,11.4-20.9,17.08-34.8,19.88-.05-.76-.1-1.53-.16-2.29,13.33-2.72,28.93-8.06,32.88-18.39,8.63-22.55-7.82-48.87-11.53-54.36-1.4-.11-2.73.02-3.99.33,3.74,8.6,16.77,40.63,8.86,52.73-4.8,7.34-15.53,11.99-26.63,14.95-.07-.76-.14-1.52-.22-2.28,10.56-2.83,20.61-7.18,24.99-13.88,7.12-10.89-5.15-41.52-8.91-50.29l-2.59-7.21-2.09.76,2.57,7.15c-.31.23-.63.45-.92.7.32,5.07.92,11.73,2.31,17.77.42,1.83.94,3.74,1.47,5.69,2.68,9.89,5.72,21.1-2.41,27.71-3.21,2.61-8.77,4.7-15.03,6.35-.09-.74-.18-1.49-.28-2.22,5.86-1.55,11-3.48,13.91-5.85,7.01-5.7,4.29-15.72,1.66-25.41-.53-1.97-1.06-3.91-1.49-5.77-1.23-5.35-1.86-11.12-2.22-15.91-1.27,1.86-2.08,4.12-2.36,6.58l-5.8-5.68-1.56,1.59,7.26,7.11c.14,2.29.65,4.8,1.31,7.38l-9.65-1.82-.41,2.18,10.71,2.02c1.63,5.83,3.65,11.9,3.61,16.86-.06,7.95-8.83,11.52-15.49,13.08-3.14-21.35-8.66-40.47-14.43-51.18l4.98-7.78-1.87-1.2-4.35,6.81c-.22-.35-.43-.73-.65-1.06-2.09-3.17-4.14-5.87-6.16-8.21l3.23-10.13-2.12-.67-2.83,8.88c-4.12-4.33-8.2-7.03-12.48-8.3,12.97,17.94,36.51,61.59,27.4,133.7-1.59,12.59-3.56,24.14-5.77,34.76l8.05,4.83c3.83-13.6,6.67-28.4,8.61-45.22,1.23-10.66,1.35-22.13.65-33.56,7.4-.5,18.13-1.98,26.43-6.21l5.64,7.74,1.8-1.31-5.47-7.51c2.07-1.23,3.95-2.66,5.52-4.32,3.02-3.22,4.99-6.6,6.22-10.03l11.31-.48-.09-2.22Z"/>
        <path class="cls-2" d="M505.86,425.97c1.23-8.23,2.32-17.04,3.23-26.54,6.49-68.07-15.59-113.03-27.45-131.73-.85.42-1.66.91-2.43,1.46l-7.22-7.55-1.61,1.54,7.12,7.44c-.25.23-.53.42-.77.66.15,6.45,1.29,16.87,5.57,31.8l1.31,4.55c7.96,27.53,18.87,65.24,12.21,112.09-.07.53-.16,1.04-.24,1.57,1.89.2,3.66.75,5.09,1.61l5.19,3.11Z"/>
        <path class="cls-2" d="M493.34,421.19c.09-.61.19-1.2.28-1.82,6.6-46.38-4.23-83.82-12.14-111.16l-1.31-4.55c-3.85-13.41-5.21-23.21-5.58-29.88-1.63,2.3-2.87,5.03-3.68,8.06l-9.49-4.2-.9,2.03,9.88,4.37c-.6,3.17-.75,6.62-.42,10.25l-10.56.99.21,2.21,10.61-.99c.46,3.24,1.3,6.6,2.56,10,2.08,5.63,4.35,12.93,6.5,21.15l-10.01-2.04-.45,2.18,11.07,2.25c.72,2.86,1.41,5.81,2.08,8.84l-11.34.4.08,2.22,11.74-.42c2.84,13.34,5.01,27.97,5.45,41.66-6.98,1.01-16.29.98-19.88-5.39-1.08-1.92-1.84-4.19-2.47-6.63l7.62-5.07-1.23-1.85-6.93,4.62c-.58-2.61-1.07-5.32-1.65-7.92l6.97-8.73-1.74-1.39-5.9,7.39c-.63-2.31-1.39-4.45-2.46-6.24-1.41-2.37-3.43-4.26-5.74-5.55,1.88,4.59,3.28,10.6,4.22,18.11,1.63,13.01,4.23,19.6,14.61,21.81,4.04.85,9.65,1.02,14.68.95,0,.75-.02,1.48-.03,2.23-4.77.07-10.04-.07-14.18-.82-.32-.06-.63-.12-.94-.18-12.74-2.72-14.88-11.93-16.35-23.71-1.07-8.54-2.76-15.11-5.05-19.68-.68-.2-1.38-.34-2.08-.45l.92-11.04-2.22-.19-.92,11.05c-.49,0-.98.03-1.47.08,1.01,4.57,2.12,9.67,3.09,14.3l.11.56c2.52,11.95,6.75,31.97,18.6,33.75,4.47.68,12.67.44,20.41-.02-.03.74-.07,1.5-.11,2.25-7.78.46-16.01.67-20.64-.02-.13-.02-.26-.04-.39-.06-13.11-2.37-17.45-23.04-20.06-35.43l-.12-.56c-.98-4.64-2.08-9.74-3.09-14.31-.77.21-1.52.52-2.27.87l-6.47-10.02-1.87,1.21,6.44,9.96c-.26.2-.54.37-.78.59.86,7.27,2.58,19.92,4.92,27.92,2.41,8.23,8.49,22.3,21.68,24.38,6.43.99,15.01.32,22.43-.7-.05.75-.11,1.52-.17,2.28-7.45,1-16,1.63-22.6.61-.19-.03-.39-.06-.58-.09-14.05-2.54-20.36-17.24-22.89-25.86-2.2-7.5-3.82-18.69-4.75-26.16-2.58,4.16-3.05,10.37-2.23,16.52l-9.69-3.98-.84,2.06,10.97,4.5c.26,1.37.56,2.73.94,4.04.54,1.89,1.08,3.97,1.7,6.13l-10.69,2.17.44,2.18,10.9-2.21c.76,2.39,1.68,4.85,2.87,7.27l-10.31,6.38,1.17,1.89,10.18-6.3c3.25,5.72,8.31,10.97,17.04,14.14,9.24,3.35,20.08.95,28.29-2.06-.58,7.1-1.51,14.57-2.64,22.08l2.56-1.53c1.68-1.01,3.83-1.57,6.09-1.67Z"/>
      </g>
      <g>
        <path class="cls-8" d="M267.38,380.09c1.1.1,2.16.14,3.16.14,5.65,0,9.34-1.46,10.97-4.35.59-1.05,1.11-2.3,1.6-3.86l-1.15-.77-14.16,2.64c-.17,2.11-.32,4.19-.42,6.2Z"/>
        <path class="cls-8" d="M461.41,274.63c.41,0,.82.08,1.22.26l6.45,2.85c.82-2.09,1.84-3.99,3.05-5.7.38-.54.93-.91,1.54-1.11l-4.12-4.3-8.51,8.06c.12-.02.25-.05.37-.05Z"/>
        <path class="cls-8" d="M437.31,333.82l.27.42,7.51-1.4v-.06c.07-.8.45-1.53,1.06-2.05.55-.46,1.24-.71,1.94-.71.08,0,.17,0,.25.01l2.22.19c.89.07,1.65.54,2.15,1.2l13.33-2.49c-.22-.54-.28-1.14-.16-1.73l.45-2.18c.29-1.43,1.55-2.41,2.95-2.41.2,0,.4.02.6.06l5.24,1.07c-.41-1.49-.83-2.94-1.25-4.36l-37.83,13.35c.51.23.96.59,1.29,1.09Z"/>
        <path class="cls-8" d="M281.89,361.31l3.22,2.15c.15-.73.3-1.46.45-2.18l-.3-.38-3.62.29c.08.04.17.07.25.12Z"/>
        <polygon class="cls-8" points="440.27 338.41 441.64 340.53 444.46 340.3 444.71 337.35 440.27 338.41"/>
        <path class="cls-8" d="M278.51,270.93c.6.19,1.15.56,1.54,1.11,1.21,1.71,2.23,3.62,3.05,5.7l6.45-2.85c.4-.17.81-.26,1.22-.26.13,0,.25.04.37.05l-8.51-8.06-4.12,4.3Z"/>
        <path class="cls-8" d="M452.79,339.64l14.98-1.2c.36-1.2,1.44-2.11,2.77-2.15l7.71-.27c-.27-1.15-.54-2.28-.81-3.39l-6.99-1.42-17.3,4.13-.36,4.3Z"/>
        <path class="cls-8" d="M288.45,351.69c.04-.09.09-.16.13-.25h-.33s.2.25.2.25Z"/>
        <path class="cls-8" d="M474.45,362.14l1.23,1.85c.92,1.38.54,3.25-.84,4.17l-1.21.8,10.52,2.51c-.28-3.02-.65-6.13-1.07-9.29l-9.3-.74c.25.2.48.42.66.69Z"/>
        <path class="cls-8" d="M463.72,351.69l.2-.25h-.33c.04.09.09.16.13.25Z"/>
        <path class="cls-8" d="M466.61,361.28c.15.72.3,1.45.45,2.18l3.22-2.15c.08-.05.17-.07.25-.12l-3.62-.29-.3.38Z"/>
        <path class="cls-8" d="M472.68,353.67l-3.39,4.24,13.43,1.75c-.41-2.85-.89-5.74-1.41-8.66l-8.05.2c.17.84,0,1.74-.59,2.47Z"/>
        <path class="cls-8" d="M469.05,372.03c.49,1.56,1.01,2.82,1.6,3.87,1.63,2.88,5.32,4.35,10.97,4.35,1,0,2.06-.05,3.16-.14-.1-2.01-.25-4.09-.42-6.19l-14.16-2.64-1.15.77Z"/>
        <path class="cls-8" d="M455.96,343.37c2.09,1.16,3.92,2.71,5.4,4.54l5.38.13c.44-.35.96-.57,1.53-.64.11-.01.22-.02.34-.02.68,0,1.34.23,1.88.66l.12.09,10.26.26c-.26-1.39-.53-2.79-.82-4.2,0,0-9.28.33-9.32.33-.76,0-1.49-.29-2.05-.81-.56-.53-.9-1.25-.94-2.01l-12,1.57c.08.04.16.05.24.09Z"/>
        <path class="cls-8" d="M268.69,410.74l4.66-2.85c-1.67-.35-3.36-.75-5.1-1.27.13,1.35.28,2.72.44,4.12Z"/>
        <path class="cls-8" d="M310.95,394.62l.26-.2-.08-.05c-.06.09-.12.16-.18.25Z"/>
        <polygon class="cls-8" points="319.26 385.12 315.31 387.27 318.21 389.06 322.5 385.77 319.26 385.12"/>
        <polygon class="cls-8" points="433.96 389.06 436.86 387.27 432.91 385.12 429.67 385.77 433.96 389.06"/>
        <polygon class="cls-8" points="307.71 340.3 310.53 340.53 311.9 338.41 307.46 337.35 307.71 340.3"/>
        <path class="cls-8" d="M301.62,330.21l2.22-.19c.08,0,.17-.01.25-.01.71,0,1.4.25,1.94.71.61.52.99,1.25,1.06,2.05v.06s7.51,1.4,7.51,1.4l.27-.42c.33-.5.78-.86,1.29-1.09l-37.83-13.35c-.42,1.42-.84,2.88-1.25,4.36l5.24-1.07c.2-.04.4-.06.6-.06,1.4,0,2.65.98,2.95,2.41l.45,2.18c.12.58.06,1.18-.16,1.73l13.33,2.49c.5-.66,1.26-1.13,2.15-1.2Z"/>
        <path class="cls-8" d="M299.02,335.34l-17.29-4.13-6.99,1.42c-.27,1.11-.54,2.24-.81,3.39l7.71.27c1.33.05,2.41.95,2.77,2.15l14.97,1.19-.36-4.3Z"/>
        <path class="cls-8" d="M483.92,406.62c-1.74.52-3.44.92-5.11,1.27l4.66,2.85c.16-1.4.31-2.78.44-4.12Z"/>
        <path class="cls-8" d="M441.04,394.37l-.08.05.27.21c-.06-.09-.13-.17-.19-.25Z"/>
        <path class="cls-8" d="M283.51,343.72c-.56.52-1.29.81-2.05.81-.04,0-9.32-.33-9.32-.33-.29,1.41-.56,2.8-.82,4.2l10.26-.26.11-.09c.54-.43,1.2-.66,1.88-.66.11,0,.22,0,.34.02.56.06,1.09.29,1.53.64l5.38-.13c1.48-1.83,3.3-3.38,5.4-4.54.08-.04.16-.06.24-.09l-12-1.57c-.05.77-.38,1.49-.94,2.01Z"/>
        <path class="cls-8" d="M268.01,371.48l10.52-2.51-1.2-.8c-1.38-.92-1.76-2.79-.84-4.17l1.23-1.85c.18-.27.41-.5.66-.7l-9.3.74c-.43,3.17-.79,6.27-1.07,9.29Z"/>
        <path class="cls-8" d="M269.44,359.66l13.43-1.75-3.39-4.24c-.58-.72-.75-1.63-.59-2.47l-8.05-.2c-.52,2.93-.99,5.82-1.41,8.66Z"/>
        <polygon class="cls-9" points="373.62 291.08 378.55 291.08 376.08 192.93 373.62 291.08"/>
        <polygon class="cls-9" points="385.87 407.57 387.45 414.18 393.22 420.13 390.68 406.54 385.87 407.57"/>
        <polygon class="cls-9" points="361.49 292.86 366.3 291.84 343.49 196.35 361.49 292.86"/>
        <polygon class="cls-9" points="397.68 404.27 409.3 428.7 412.22 426.44 402.18 402.26 397.68 404.27"/>
        <polygon class="cls-9" points="354.49 295.14 312.32 206.48 349.99 297.14 354.49 295.14"/>
        <path class="cls-9" d="M408.55,398.59l14.75,19.27,1.35-1.05c.52-.41,1.11-.74,1.72-1.04l-13.84-20.08-3.99,2.9Z"/>
        <polygon class="cls-9" points="343.61 300.82 283.93 222.87 339.63 303.72 343.61 300.82"/>
        <path class="cls-9" d="M431.83,399.55c-1.01,0-1.99-.51-2.56-1.43l-1.17-1.89c-.42-.68-.55-1.5-.37-2.27.05-.2.12-.39.2-.58l-6.62-6.27-3.3,3.66,50.57,43.28,1.41-.85-36.25-34.32-.34.21c-.49.3-1.04.45-1.58.45Z"/>
        <polygon class="cls-9" points="259.58 244.8 276.64 260.96 277.46 260.11 259.58 244.8"/>
        <path class="cls-9" d="M291.14,274.68c1.01.13,1.94.74,2.38,1.74l.39.89,36.95,34.99,3.29-3.66-50.43-43.17-1.1,1.15,8.51,8.06Z"/>
        <path class="cls-9" d="M478.82,407.9c-1.02.21-2.03.41-3.03.57l7.47,4.07c.07-.59.15-1.2.22-1.78l-4.66-2.85Z"/>
        <path class="cls-9" d="M437.13,387.1c-.36-.84-.7-1.72-1.03-2.63l-3.19.65,3.95,2.15.27-.17Z"/>
        <polygon class="cls-9" points="428.09 376.89 427.57 377.79 429.08 377.49 428.09 376.89"/>
        <path class="cls-9" d="M292.28,300.49l-5.01-.47,36.81,22.5,2.46-4.27-32.95-17.94c-.32.12-.66.19-1.02.19-.09,0-.19,0-.28-.01Z"/>
        <path class="cls-9" d="M316.15,332.73c.39-.18.81-.29,1.24-.29.56,0,1.12.16,1.63.48l.71.46,1.34-4.14-41.96-12.48c-.27.86-.54,1.72-.8,2.61l37.83,13.35Z"/>
        <path class="cls-9" d="M466.91,360.9l3.62.29c.44-.24.92-.39,1.42-.39.2,0,.4.02.59.06.46.09.89.3,1.25.59l9.3.74c-.11-.84-.24-1.68-.36-2.53l-13.43-1.75-2.39,2.99Z"/>
        <path class="cls-9" d="M307.81,341.47c.11.05.21.11.31.18.18-.03.36-.05.53-.05.27,0,.54.04.81.11.09.02.17.05.26.08l.81-1.25-2.82-.23.1,1.16Z"/>
        <path class="cls-9" d="M298.2,343.04c.33-.5.81-.89,1.37-1.12l-.19-2.28-14.97-1.19c.09.3.15.62.13.96l-.08,2.22s0,.06-.01.08l12,1.57c.39-.18.81-.28,1.22-.28.18,0,.35.02.53.05Z"/>
        <polygon class="cls-9" points="317.51 346.03 317.65 344.7 316.85 345.94 317.51 346.03"/>
        <path class="cls-9" d="M442.45,341.78c.09-.03.17-.05.26-.08.27-.07.54-.11.81-.11.18,0,.36.02.53.05.1-.07.21-.13.31-.18l.1-1.16-2.82.22.81,1.25Z"/>
        <polygon class="cls-9" points="434.65 346.03 435.32 345.94 434.51 344.69 434.65 346.03"/>
        <path class="cls-9" d="M452.6,341.92c.56.23,1.04.62,1.37,1.12.17-.03.35-.05.53-.05.42,0,.83.11,1.22.28l12-1.57s-.01-.06-.01-.08l-.08-2.22c-.01-.34.04-.65.13-.96l-14.98,1.2-.19,2.28Z"/>
        <path class="cls-9" d="M269.08,362.19l9.3-.74c.37-.29.79-.5,1.25-.59.2-.04.39-.06.59-.06.5,0,.98.15,1.42.39l3.62-.29-2.39-2.99-13.43,1.75c-.12.85-.25,1.69-.36,2.53Z"/>
        <path class="cls-9" d="M434.77,332.44c.43,0,.85.11,1.24.29l37.83-13.35c-.27-.89-.53-1.75-.8-2.61l-41.96,12.48,1.34,4.14.71-.46c.5-.33,1.07-.48,1.63-.48Z"/>
        <path class="cls-9" d="M459.61,300.5c-.36,0-.7-.07-1.02-.19l-32.96,17.94,2.46,4.27,36.81-22.5-5.01.47c-.1,0-.19.01-.28.01Z"/>
        <polygon class="cls-9" points="324.07 376.89 323.09 377.49 324.6 377.79 324.07 376.89"/>
        <path class="cls-9" d="M316.07,384.47c-.33.91-.67,1.79-1.03,2.63l.27.17,3.95-2.15-3.19-.65Z"/>
        <path class="cls-9" d="M268.69,410.74c.07.58.14,1.19.22,1.78l7.47-4.07c-.99-.15-2.01-.35-3.02-.57l-4.66,2.85Z"/>
        <polygon class="cls-9" points="492.59 244.8 474.71 260.11 475.53 260.96 492.59 244.8"/>
        <path class="cls-9" d="M461.03,274.68l8.51-8.06-1.1-1.15-50.43,43.17,3.29,3.66,36.95-34.99.4-.89c.44-1,1.37-1.61,2.38-1.74Z"/>
        <path class="cls-9" d="M330.86,387.11l-6.62,6.27c.09.19.16.38.2.58.18.78.05,1.6-.37,2.27l-1.17,1.89c-.57.92-1.55,1.43-2.56,1.43-.54,0-1.09-.15-1.58-.45l-.34-.21-36.25,34.32,1.41.85,50.57-43.28-3.29-3.66Z"/>
        <polygon class="cls-9" points="412.54 303.72 468.23 222.87 408.55 300.82 412.54 303.72"/>
        <path class="cls-9" d="M339.63,395.69l-13.83,20.08c.61.3,1.19.63,1.72,1.04l1.35,1.04,14.75-19.27-3.99-2.9Z"/>
        <polygon class="cls-9" points="402.18 297.15 439.85 206.48 397.68 295.14 402.18 297.15"/>
        <polygon class="cls-9" points="349.99 402.26 339.94 426.43 342.87 428.7 354.49 404.27 349.99 402.26"/>
        <polygon class="cls-9" points="390.68 292.87 408.68 196.36 385.87 291.84 390.68 292.87"/>
        <polygon class="cls-9" points="358.95 420.14 364.72 414.19 366.3 407.57 361.49 406.54 358.95 420.14"/>
        <path class="cls-9" d="M381.38,408.1c.37.28.73.58,1.05.92l2.54,2.62-.31-3.88-3.28.35Z"/>
        <polygon class="cls-9" points="367.5 291.65 372.41 291.14 359.69 193.79 367.5 291.65"/>
        <path class="cls-9" d="M391.86,406.22l6.94,19.66,3.75,3.86c.45.46,1.06.78,1.73.94l-7.73-25.99-4.68,1.52Z"/>
        <polygon class="cls-9" points="360.31 293.18 327.64 200.6 355.62 294.7 360.31 293.18"/>
        <polygon class="cls-9" points="403.27 401.71 416.4 423.2 419.34 420.93 407.53 399.25 403.27 401.71"/>
        <polygon class="cls-9" points="348.9 297.69 297.7 213.93 344.64 300.16 348.9 297.69"/>
        <path class="cls-9" d="M413.48,394.93l18.76,19.81c2.1.18,4.07.87,5.62,2.07l2.48,1.92-23.2-27.11-3.66,3.3Z"/>
        <polygon class="cls-9" points="338.68 304.48 271.18 233.2 335.02 307.78 338.68 304.48"/>
        <path class="cls-9" d="M441.23,394.63l-.27-.21-3.64,2.25,43.56,30,1.24-.74-24.85-19.03c-6.82-2.62-12.11-6.65-16.04-12.28Z"/>
        <path class="cls-9" d="M429.67,385.77l-1.87.38c-.2.04-.4.06-.6.06-.59,0-1.17-.17-1.66-.5-.66-.44-1.13-1.13-1.29-1.91l-.1-.5-2.08,2.86,7.85,5.4,4.05-2.5-4.29-3.29Z"/>
        <path class="cls-9" d="M256.47,262.53l-7.22-4.97,6.64,5.08c.14-.04.28-.08.43-.09.05,0,.1,0,.15-.01Z"/>
        <polygon class="cls-9" points="327.2 317.23 330.1 313.25 288.3 284.45 285.82 285.55 327.2 317.23"/>
        <path class="cls-9" d="M433.61,376.28c-.26-.94-.5-1.85-.75-2.72-.13-.44-.25-.9-.37-1.38l-1.84-.88-2,4.5,2.87,1.19,2.17-.44c-.02-.09-.05-.18-.07-.27Z"/>
        <path class="cls-9" d="M281.65,309.14l39.87,18.96,2-4.5-40.99-17.03c-.11.32-.2.65-.32.97-.19.51-.38,1.06-.56,1.59Z"/>
        <path class="cls-9" d="M470.21,371.26l14.16,2.64c-.07-.8-.13-1.6-.2-2.41l-10.52-2.51-3.43,2.29Z"/>
        <path class="cls-9" d="M298.87,333.46c-.06-.76.17-1.48.6-2.05l-13.33-2.49c-.07.19-.17.37-.28.53-.44.67-1.13,1.13-1.91,1.29l-2.22.45,17.29,4.13-.16-1.87Z"/>
        <polygon class="cls-9" points="307.46 337.35 311.9 338.41 314.6 334.24 307.09 332.84 307.46 337.35"/>
        <path class="cls-9" d="M466.73,348.05l-5.38-.13c.54.66,1.03,1.36,1.47,2.1.27.45.52.94.76,1.44h.33s2.32-2.92,2.32-2.92c.14-.18.31-.34.49-.48Z"/>
        <path class="cls-9" d="M472.21,349.44c.58.46.92,1.09,1.06,1.76l8.05-.2c-.15-.87-.31-1.73-.47-2.6l-10.26-.26,1.62,1.3Z"/>
        <path class="cls-9" d="M285.93,348.52l2.32,2.91h.33c.24-.49.49-.98.76-1.42.44-.74.94-1.43,1.47-2.1l-5.38.13c.18.14.35.3.49.48Z"/>
        <path class="cls-9" d="M279.96,349.44l1.62-1.3-10.26.26c-.16.87-.32,1.73-.47,2.6l8.05.2c.13-.67.48-1.3,1.06-1.76Z"/>
        <polygon class="cls-9" points="445.08 332.84 437.57 334.24 440.27 338.41 444.71 337.35 445.08 332.84"/>
        <path class="cls-9" d="M453.3,333.46l-.16,1.87,17.3-4.13-2.22-.45c-.78-.16-1.47-.62-1.91-1.29-.11-.17-.2-.35-.28-.53l-13.33,2.49c.43.57.66,1.28.6,2.05Z"/>
        <path class="cls-9" d="M267.8,373.9l14.16-2.64-3.43-2.29-10.52,2.51c-.08.81-.14,1.61-.2,2.41Z"/>
        <path class="cls-9" d="M469.64,306.58l-41,17.03,2,4.5,39.88-18.97c-.19-.53-.38-1.09-.57-1.6-.12-.32-.21-.65-.32-.97Z"/>
        <path class="cls-9" d="M318.56,376.28c-.02.09-.05.18-.07.27l2.17.44,2.87-1.19-2-4.5-1.83.87c-.12.48-.24.94-.37,1.39-.25.87-.5,1.78-.76,2.72Z"/>
        <polygon class="cls-9" points="422.07 313.25 424.97 317.24 466.35 285.55 463.87 284.45 422.07 313.25"/>
        <path class="cls-9" d="M496.28,262.64l6.63-5.08-7.21,4.97s.1,0,.15.01c.15.02.29.05.43.09Z"/>
        <path class="cls-9" d="M310.95,394.62c-3.93,5.63-9.22,9.67-16.05,12.29l-24.85,19.02,1.24.74,43.56-30.01-3.63-2.25-.26.2Z"/>
        <path class="cls-9" d="M326.63,385.71c-.5.33-1.08.5-1.66.5-.2,0-.4-.02-.6-.06l-1.87-.38-4.29,3.29,4.05,2.5,7.84-5.4-2.08-2.86-.1.5c-.16.78-.62,1.47-1.29,1.91Z"/>
        <polygon class="cls-9" points="417.15 307.78 480.99 233.2 413.48 304.48 417.15 307.78"/>
        <path class="cls-9" d="M335.02,391.63l-23.21,27.12,2.5-1.94c1.55-1.2,3.52-1.9,5.61-2.07l18.76-19.82-3.66-3.3Z"/>
        <polygon class="cls-9" points="407.53 300.16 454.47 213.93 403.27 297.7 407.53 300.16"/>
        <polygon class="cls-9" points="344.64 399.25 332.83 420.93 335.77 423.2 348.9 401.71 344.64 399.25"/>
        <polygon class="cls-9" points="396.54 294.71 424.53 200.6 391.86 293.19 396.54 294.71"/>
        <path class="cls-9" d="M355.62,404.7l-7.73,25.99c.67-.16,1.28-.48,1.73-.94l3.74-3.86,6.94-19.67-4.68-1.52Z"/>
        <polygon class="cls-9" points="392.47 193.79 379.76 291.14 384.66 291.65 392.47 193.79"/>
        <path class="cls-9" d="M367.19,411.64l2.54-2.62c.33-.34.68-.64,1.05-.92l-3.28-.35-.31,3.88Z"/>
      </g>
    </g>
  </g>
  <g id="TEXTS">
    <text class="cls-7" transform="translate(267.05 524.67)"><tspan class="cls-4" x="0" y="0">R</tspan><tspan class="cls-10" x="16.91" y="0">O</tspan><tspan class="cls-1" x="35.19" y="0">T</tspan><tspan class="cls-11" x="49.94" y="0">A</tspan><tspan class="cls-13" x="66.63" y="0"> </tspan><tspan class="cls-12" x="75.57" y="0">P</tspan><tspan class="cls-4" x="90.81" y="0">ARAI</tspan><tspan class="cls-15" x="151.42" y="0">B</tspan><tspan class="cls-13" x="168.32" y="0">AN</tspan><tspan class="cls-11" x="204.77" y="0">A</tspan></text>
    <text class="cls-5" transform="translate(326.26 397.74)"><tspan x="0" y="0">C</tspan></text>
    <text class="cls-6" transform="translate(204.13 489.33) rotate(.17) scale(1.04 1)"><tspan class="cls-14" x="0" y="0">C</tspan><tspan class="cls-3" x="22.86" y="0">AMINHOS DO FRIO</tspan></text>
  </g>
</svg>