<?xml version="1.0" standalone="no"?>
<!DOCTYPE svg PUBLIC "-//W3C//DTD SVG 20010904//EN"
 "http://www.w3.org/TR/2001/REC-SVG-20010904/DTD/svg10.dtd">
<svg version="1.0" xmlns="http://www.w3.org/2000/svg"
 width="1389.000000pt" height="1389.000000pt" viewBox="0 0 1389.000000 1389.000000"
 preserveAspectRatio="xMidYMid meet">

<g transform="translate(0.000000,1389.000000) scale(0.100000,-0.100000)"
fill="#000000" stroke="none">
<path d="M4292 9757 l-102 -102 -31 19 c-39 23 -32 32 -136 -152 -361 -639
-587 -1395 -669 -2247 -22 -225 -25 -861 -6 -1090 25 -289 95 -871 106 -882 1
-2 45 21 96 51 50 30 106 58 124 61 67 14 64 6 50 108 -41 297 -60 712 -45
1007 32 623 125 1128 357 1939 143 499 192 722 215 986 9 101 10 138 1 147 -8
8 13 36 83 110 52 54 95 102 95 107 0 4 -8 15 -18 24 -17 15 -24 10 -120 -86z"/>
<path d="M9695 9840 c-17 -19 -16 -22 78 -123 69 -75 93 -107 85 -115 -14 -14
14 -288 48 -465 34 -177 68 -312 168 -660 230 -803 323 -1296 357 -1897 17
-311 0 -756 -41 -1054 -6 -43 -9 -84 -7 -91 3 -7 23 -15 44 -18 21 -4 81 -31
133 -61 82 -47 96 -52 102 -38 17 43 89 682 108 960 13 195 13 653 0 842 -53
762 -214 1418 -505 2059 -77 171 -252 492 -276 507 -5 3 -22 -4 -38 -15 l-29
-21 -100 105 c-55 58 -102 105 -105 105 -2 0 -12 -9 -22 -20z"/>
<path d="M3750 9754 c-33 -11 -217 -299 -330 -517 -434 -840 -605 -1894 -490
-3024 23 -224 58 -477 101 -723 31 -181 70 -393 74 -398 2 -2 65 35 141 81
l139 84 -2 44 c-1 24 -15 150 -32 279 -65 508 -75 647 -75 1115 -1 450 8 588
55 920 104 735 344 1444 677 2003 30 51 52 95 49 98 -21 22 -266 52 -307 38z"/>
<path d="M10225 9755 c-5 -1 -42 -8 -80 -14 -39 -7 -76 -15 -83 -20 -9 -5 5
-38 54 -122 96 -164 252 -487 327 -679 189 -479 313 -1008 373 -1580 21 -209
30 -831 15 -1072 -13 -194 -59 -630 -91 -863 -11 -76 -17 -142 -12 -146 13
-13 276 -168 279 -166 4 5 60 302 87 467 52 319 85 578 108 855 16 192 16 780
0 955 -65 713 -231 1325 -502 1855 -121 235 -304 518 -343 529 -23 6 -114 7
-132 1z"/>
<path d="M3193 9740 c-13 -5 -23 -12 -23 -16 0 -4 18 -63 40 -130 22 -68 40
-128 40 -134 0 -7 -33 -56 -72 -109 -40 -54 -82 -110 -94 -126 l-20 -28 -58
90 c-56 86 -60 91 -82 81 -13 -6 -24 -16 -24 -21 0 -5 29 -56 65 -112 l65
-102 -44 -94 c-124 -266 -241 -677 -322 -1128 -19 -107 -36 -196 -38 -198 -8
-8 -148 42 -219 79 -95 50 -168 125 -193 200 -13 40 -15 69 -10 134 6 80 45
250 83 364 l18 54 125 23 c180 33 167 28 162 63 -3 22 -9 29 -21 26 -39 -11
-244 -47 -247 -43 -3 2 2 33 11 68 8 35 15 77 15 94 0 24 19 48 102 132 l103
103 -23 22 -22 22 -79 -78 -78 -78 -6 29 c-10 49 -48 143 -56 138 -5 -2 -11
-44 -15 -93 -9 -123 -40 -296 -76 -432 -78 -292 -85 -328 -85 -465 0 -120 2
-134 27 -187 51 -109 159 -181 374 -248 100 -31 100 -32 96 -61 -2 -16 -8 -29
-13 -29 -5 0 -53 14 -106 31 -256 82 -382 180 -429 337 -9 28 -15 89 -14 152
0 115 20 225 89 485 59 224 104 565 80 603 -10 15 -6 36 21 111 18 50 31 93
29 95 -2 3 -15 7 -29 11 -23 5 -27 1 -49 -62 -12 -37 -56 -151 -96 -253 -113
-288 -192 -545 -236 -775 -8 -41 -14 -135 -14 -225 1 -189 15 -237 103 -331
110 -119 260 -203 504 -283 132 -44 133 -45 136 -76 3 -31 3 -32 -30 -25 -18
4 -85 25 -148 47 -371 127 -580 299 -620 508 -16 87 -12 267 10 397 38 223
135 544 244 807 25 61 44 111 42 113 -2 2 -26 6 -53 10 l-50 5 -53 -83 c-79
-129 -184 -349 -235 -499 -70 -206 -98 -354 -98 -530 -2 -320 77 -510 267
-644 134 -96 374 -192 609 -246 l97 -22 0 -33 c0 -26 -4 -32 -17 -29 -511 110
-820 281 -932 516 -93 195 -116 479 -61 748 43 215 168 527 288 723 23 37 39
67 36 67 -14 0 -69 -35 -104 -66 l-38 -35 -38 121 c-37 119 -38 121 -63 115
-14 -4 -27 -8 -29 -10 -2 -2 16 -65 40 -141 l44 -137 -48 -79 c-45 -77 -128
-270 -128 -302 0 -36 -20 -19 -80 69 -60 87 -66 93 -84 81 -11 -7 -21 -17 -23
-22 -2 -5 33 -61 77 -124 66 -94 80 -120 74 -140 -23 -94 -64 -316 -70 -379
-3 -42 -7 -81 -9 -88 -3 -8 -44 13 -111 53 -58 36 -107 64 -109 62 -8 -10 -26
-50 -23 -53 2 -1 56 -35 121 -75 124 -76 121 -72 132 -169 3 -30 9 -66 11 -81
l6 -27 -146 5 -146 5 0 -32 0 -31 63 0 c35 0 105 -3 156 -7 l92 -6 35 -70 c62
-124 132 -211 223 -277 33 -24 61 -48 61 -53 0 -5 -32 -52 -70 -105 -69 -95
-70 -96 -51 -115 10 -11 24 -17 29 -13 6 3 42 51 82 106 40 55 74 100 76 100
3 0 21 -8 42 -19 111 -56 366 -119 577 -142 l110 -12 -3 -301 c-5 -406 16
-655 94 -1116 35 -208 105 -538 147 -687 l23 -83 109 66 c61 36 111 67 112 68
1 0 -7 44 -18 96 -58 283 -137 799 -164 1080 -126 1313 127 2523 709 3394 37
54 64 101 62 104 -3 2 -38 -12 -78 -33 -71 -35 -127 -75 -215 -151 l-42 -35
-38 120 c-21 66 -40 120 -43 120 -3 0 -15 -4 -27 -9z"/>
<path d="M10885 9737 c-3 -7 -18 -57 -36 -112 -17 -55 -33 -103 -36 -107 -2
-4 -41 24 -86 62 -72 61 -240 160 -252 148 -2 -2 18 -37 46 -78 201 -299 387
-687 507 -1060 255 -789 316 -1690 181 -2685 -26 -191 -72 -477 -110 -673 -16
-85 -29 -160 -29 -167 0 -8 48 -43 108 -79 101 -61 107 -63 115 -44 16 43 97
390 126 539 104 535 148 999 135 1415 l-7 212 74 7 c202 19 415 67 572 129
l88 34 62 -85 c98 -135 90 -128 115 -112 12 8 22 17 22 21 0 5 -31 51 -70 104
-38 53 -70 99 -69 103 0 3 28 26 62 51 82 60 169 166 219 266 l40 81 90 7 c50
3 120 6 155 6 l63 0 0 31 0 32 -146 -5 -145 -5 5 22 c6 24 25 153 26 171 0 7
54 45 120 84 66 40 120 78 120 84 0 6 -7 19 -14 29 -12 16 -21 12 -120 -48
-58 -36 -106 -61 -106 -56 0 38 -35 259 -58 367 l-28 131 82 118 c76 108 82
119 66 131 -9 7 -22 14 -29 14 -6 0 -37 -37 -69 -82 -31 -46 -60 -87 -64 -91
-4 -5 -20 29 -35 75 -29 87 -84 205 -129 276 -14 23 -26 46 -26 52 0 6 19 69
42 140 23 71 39 132 37 135 -3 2 -16 6 -29 7 -21 3 -26 -7 -62 -115 l-40 -118
-43 40 c-23 22 -57 47 -75 56 l-32 17 26 -44 c144 -235 255 -506 306 -744 31
-141 38 -397 16 -519 -32 -173 -76 -277 -157 -369 -136 -154 -411 -289 -756
-370 -56 -13 -105 -21 -108 -18 -3 3 -5 17 -5 32 0 25 5 27 98 49 318 76 550
181 690 315 92 87 136 177 174 351 22 100 16 369 -11 495 -49 233 -191 576
-320 778 -43 65 -51 69 -118 56 l-30 -6 62 -158 c164 -413 247 -747 248 -1000
0 -194 -26 -270 -131 -382 -98 -104 -238 -189 -431 -263 -138 -52 -234 -77
-243 -62 -23 35 -4 47 145 97 249 83 438 195 522 310 57 77 77 153 77 290 0
252 -77 555 -262 1030 -48 124 -93 242 -100 263 -11 35 -15 38 -39 32 -14 -4
-28 -8 -29 -10 -2 -2 12 -47 32 -101 31 -83 34 -100 23 -113 -11 -13 -12 -36
-6 -111 20 -219 38 -313 117 -622 22 -86 46 -202 53 -256 28 -234 -41 -390
-218 -489 -62 -34 -243 -103 -310 -118 -31 -6 -33 -5 -33 23 0 29 3 31 112 67
266 87 360 172 388 349 14 89 -1 209 -51 400 -56 213 -96 411 -112 556 l-14
125 -21 -45 c-12 -25 -27 -65 -33 -89 l-11 -44 -79 79 -79 78 -22 -23 -23 -23
103 -98 c66 -64 102 -106 102 -120 0 -11 7 -55 16 -96 8 -42 13 -78 10 -81 -2
-2 -51 5 -108 16 -158 31 -153 31 -153 -3 l0 -30 137 -25 c76 -15 141 -31 147
-36 5 -6 23 -60 40 -121 68 -241 78 -363 37 -451 -44 -93 -138 -165 -281 -216
-130 -45 -120 -48 -134 41 -74 472 -208 957 -350 1265 l-38 82 68 105 67 105
-21 17 c-12 10 -24 18 -27 17 -3 0 -31 -41 -64 -92 l-58 -92 -17 25 c-9 14
-51 72 -95 129 l-79 105 43 132 c23 73 40 137 36 142 -9 15 -47 22 -51 9z"/>
<path d="M4311 9403 c-26 -244 -78 -480 -206 -923 -272 -943 -365 -1505 -365
-2198 0 -268 14 -514 40 -717 18 -139 14 -131 77 -144 31 -6 85 -27 121 -46
l64 -36 -6 28 c-9 43 -54 408 -62 502 -6 76 -6 84 9 78 48 -18 192 -58 267
-74 124 -25 339 -23 441 5 206 56 413 209 516 379 l19 32 134 -85 c74 -46 140
-84 146 -84 6 0 16 11 22 24 10 23 6 27 -124 107 -74 45 -137 86 -140 90 -9
16 69 199 86 199 8 0 75 -12 147 -27 73 -15 134 -25 137 -22 2 2 6 15 8 28 3
24 -1 25 -142 56 -100 21 -144 35 -142 44 1 7 17 70 35 141 l32 128 152 62
151 62 -10 28 c-11 32 -4 33 -116 -14 -35 -15 -85 -35 -111 -46 l-48 -19 0
132 c1 136 -15 224 -51 292 l-16 30 -8 -65 c-19 -147 -70 -440 -97 -553 -104
-431 -309 -714 -585 -803 -71 -24 -102 -27 -259 -32 -157 -4 -399 9 -449 24
-12 4 -18 15 -18 36 0 29 2 30 33 24 96 -17 307 -28 440 -24 127 5 165 10 233
32 251 81 443 345 540 741 53 217 123 680 105 698 -7 7 1 26 23 61 18 28 58
90 89 138 l57 87 -28 15 -27 14 -90 -138 c-89 -136 -90 -137 -118 -128 -16 6
-30 8 -32 6 -2 -2 -32 -132 -65 -288 -101 -469 -139 -600 -225 -774 -76 -153
-166 -250 -279 -302 -68 -31 -221 -43 -458 -37 -204 5 -208 6 -208 41 l0 27
292 0 293 0 57 27 c168 78 289 287 383 657 20 81 145 654 145 667 0 2 -9 4
-20 4 -11 0 -20 6 -20 13 0 45 -24 283 -29 289 -3 4 -17 5 -30 1 -23 -6 -24
-7 -17 -107 4 -56 10 -125 13 -153 6 -51 5 -53 -19 -53 -32 0 -39 -9 -70 -90
-40 -103 -76 -260 -104 -454 -32 -222 -54 -310 -101 -406 -100 -204 -297 -289
-675 -290 l-98 0 0 30 0 30 73 0 c108 0 284 18 352 35 91 23 178 70 225 121
81 88 122 211 160 474 25 184 53 315 86 417 14 42 23 77 21 79 -2 3 -24 -11
-49 -31 -58 -44 -119 -135 -144 -214 -10 -33 -22 -61 -25 -61 -4 0 -41 43 -83
95 -42 52 -80 95 -85 95 -4 0 -15 -8 -24 -18 -15 -17 -10 -25 78 -136 52 -65
95 -122 95 -126 0 -15 -40 -204 -44 -208 -3 -2 -45 24 -95 57 -50 34 -92 61
-94 61 -3 0 -12 -11 -21 -25 l-16 -24 105 -71 c120 -81 116 -68 64 -196 -51
-123 -148 -192 -299 -214 -95 -14 -269 -4 -277 16 -8 21 15 305 42 519 22 172
87 562 101 609 6 18 15 19 170 13 l164 -6 0 28 c0 36 -21 41 -186 41 -109 0
-124 2 -124 17 0 9 12 65 26 124 18 78 30 110 42 113 9 3 79 17 155 32 l138
27 -6 26 c-4 14 -8 27 -10 29 -2 2 -63 -8 -135 -23 -72 -15 -134 -25 -136 -23
-6 7 61 236 146 498 43 135 84 271 91 304 l11 59 61 -7 c34 -3 101 -9 150 -12
l87 -7 0 30 0 30 -145 13 -145 13 -2 113 c-1 63 -2 128 -2 145 -1 31 2 33 129
89 106 47 129 61 127 76 -7 39 -22 37 -143 -17 -67 -30 -125 -55 -130 -57 -4
-2 -15 21 -24 50 -16 49 -52 124 -73 156 -6 8 -13 -31 -21 -105z"/>
<path d="M9743 9430 c-22 -47 -44 -95 -49 -107 -9 -22 -10 -22 -132 32 -67 30
-126 55 -131 55 -4 0 -13 -11 -19 -25 -11 -23 -9 -26 36 -45 26 -11 85 -38
132 -59 l85 -38 0 -41 c-1 -23 -2 -89 -3 -146 l-2 -103 -145 -13 c-142 -13
-145 -14 -145 -37 0 -13 7 -26 15 -29 9 -4 75 -1 147 6 147 13 142 15 153 -59
3 -25 42 -154 85 -286 89 -270 154 -494 147 -502 -3 -2 -63 7 -133 21 -70 14
-130 26 -134 26 -4 0 -10 -13 -12 -29 l-4 -29 143 -28 c79 -16 149 -31 155
-35 11 -7 68 -229 61 -241 -2 -5 -57 -8 -121 -8 -64 0 -134 -3 -154 -6 -33 -6
-38 -10 -38 -34 l0 -28 167 1 167 2 13 -65 c59 -286 117 -710 129 -956 l7
-132 -100 -7 c-175 -12 -312 21 -397 95 -41 36 -85 116 -109 198 l-16 52 105
70 c92 62 103 73 94 90 -6 10 -14 21 -18 24 -5 3 -49 -22 -98 -54 -49 -33 -91
-60 -94 -60 -3 0 -15 48 -28 106 l-22 107 96 119 c92 115 95 120 78 139 -9 10
-20 19 -24 19 -5 0 -43 -43 -85 -96 -42 -53 -81 -92 -85 -87 -4 4 -13 26 -20
48 -32 102 -101 198 -171 239 -32 19 -32 19 -24 0 36 -90 76 -262 104 -459 47
-329 96 -454 207 -539 92 -71 218 -101 462 -112 149 -7 153 -8 148 -28 -3 -12
-6 -24 -6 -28 0 -11 -178 -9 -290 2 -255 27 -398 110 -482 281 -44 88 -69 190
-98 394 -26 188 -52 309 -90 421 -35 103 -54 134 -80 134 -10 0 -21 3 -23 8
-4 6 4 124 17 254 5 43 3 47 -21 53 -16 4 -29 2 -33 -5 -4 -7 -10 -60 -14
-118 -11 -160 -15 -182 -38 -182 -14 0 -18 -5 -14 -17 2 -10 34 -157 71 -326
36 -170 81 -361 100 -426 64 -221 144 -382 235 -472 110 -110 163 -123 509
-118 l251 4 0 -27 c0 -17 -7 -29 -19 -33 -38 -12 -505 -8 -569 5 -166 34 -301
180 -407 440 -45 113 -92 289 -160 607 -37 169 -69 316 -71 326 -4 14 -12 16
-38 11 -33 -6 -33 -6 -121 130 -76 118 -90 134 -106 126 -10 -6 -21 -15 -24
-20 -3 -5 30 -66 75 -134 88 -136 98 -156 81 -156 -8 0 -10 -12 -7 -32 3 -18
15 -103 27 -188 29 -213 82 -477 119 -596 68 -213 189 -413 308 -510 64 -52
142 -94 222 -119 101 -31 467 -30 648 2 33 5 33 5 30 -28 l-3 -34 -105 -12
c-135 -14 -436 -16 -520 -2 -283 46 -514 292 -639 683 -38 119 -92 385 -122
596 -11 85 -22 157 -24 158 -7 8 -27 -42 -45 -115 -15 -56 -20 -110 -20 -204
l0 -128 -132 54 c-73 30 -133 53 -133 52 -1 -1 -6 -14 -12 -28 l-11 -27 151
-61 152 -62 35 -132 c19 -72 36 -137 38 -143 2 -7 -50 -22 -143 -40 l-145 -28
0 -28 c0 -35 3 -35 160 -3 146 30 149 30 157 8 3 -10 20 -55 38 -100 l33 -81
-143 -88 c-142 -87 -143 -87 -128 -111 8 -12 18 -23 22 -23 6 0 8 1 173 103
l107 66 26 -45 c37 -62 147 -177 221 -230 78 -55 207 -116 299 -140 51 -13
107 -18 205 -18 150 0 256 17 408 65 52 17 95 29 97 27 4 -5 -25 -270 -49
-445 l-22 -162 55 32 c31 17 85 39 121 47 l65 16 12 90 c42 317 59 716 44
1014 -33 613 -125 1107 -358 1920 -133 464 -193 732 -209 934 -11 131 -16 134
-61 36z"/>
<path d="M6920 8743 c-320 -50 -567 -174 -776 -388 -176 -182 -288 -398 -350
-680 -27 -121 -24 -377 5 -512 59 -279 191 -524 391 -723 189 -190 393 -301
652 -356 125 -27 360 -25 503 4 190 38 364 106 507 197 106 69 254 222 302
313 21 41 34 78 30 82 -5 5 -117 72 -248 149 l-240 141 -35 -63 c-67 -119
-191 -217 -335 -264 -107 -34 -286 -43 -390 -19 -186 44 -357 188 -452 383
-106 217 -116 514 -27 755 73 196 242 360 433 419 62 20 97 24 200 24 145 0
205 -13 315 -65 99 -47 200 -137 253 -226 l39 -64 224 156 c123 86 228 159
233 164 15 15 -66 133 -157 227 -181 188 -388 293 -662 338 -82 14 -348 19
-415 8z"/>
<path d="M2520 4111 c-212 -65 -279 -320 -127 -480 60 -62 126 -91 208 -91
102 0 183 35 229 100 l21 29 -46 24 -47 23 -32 -32 c-37 -37 -103 -58 -149
-49 -18 4 -49 18 -70 32 -100 64 -104 253 -6 325 63 47 167 39 223 -17 l34
-33 38 25 c22 15 41 28 43 30 12 10 -87 94 -128 108 -46 16 -148 19 -191 6z"/>
<path d="M3177 4103 c-7 -11 -227 -562 -227 -568 0 -3 26 -5 58 -5 l57 0 28
75 29 76 106 -3 107 -3 26 -70 27 -70 60 -3 60 -3 -60 153 c-33 84 -83 214
-112 288 l-53 135 -51 3 c-27 2 -52 -1 -55 -5z m97 -237 c20 -54 36 -103 36
-108 0 -4 -39 -8 -86 -8 -47 0 -84 4 -82 8 2 5 21 57 43 115 22 58 43 103 46
99 4 -4 23 -52 43 -106z"/>
<path d="M3670 3978 c0 -73 -3 -204 -7 -290 l-6 -158 61 0 62 0 2 192 3 191
75 -139 c74 -138 75 -139 110 -139 34 0 35 1 110 138 l75 138 3 -190 2 -191
54 0 53 0 6 197 c4 108 7 238 7 290 l0 93 -64 0 -64 0 -87 -160 c-48 -89 -91
-160 -96 -158 -5 2 -47 73 -93 158 l-83 155 -61 3 -62 3 0 -133z"/>
<path d="M4490 3978 c0 -73 -3 -204 -7 -290 l-6 -158 61 0 62 0 0 290 0 290
-55 0 -55 0 0 -132z"/>
<path d="M4820 3978 c0 -73 -3 -204 -7 -290 l-6 -158 61 0 62 0 2 186 3 187
154 -187 153 -186 49 0 49 0 0 290 0 290 -60 0 -60 0 -2 -188 -3 -188 -154
188 -155 188 -43 0 -43 0 0 -132z"/>
<path d="M5560 3978 c0 -73 -3 -204 -7 -290 l-6 -158 61 0 62 0 0 125 0 125
140 0 140 0 0 -125 0 -125 55 0 55 0 0 290 0 290 -55 0 -55 0 0 -120 0 -120
-140 0 -140 0 0 120 0 120 -55 0 -55 0 0 -132z"/>
<path d="M6413 4076 c-153 -73 -216 -253 -140 -402 88 -173 334 -209 469 -68
134 140 100 361 -70 461 -36 22 -61 27 -126 30 -70 4 -88 1 -133 -21z m161
-77 c91 -25 143 -107 133 -211 -9 -106 -76 -173 -172 -172 -61 0 -105 22 -142
71 -23 30 -28 48 -31 108 -7 124 45 190 168 214 3 0 23 -4 44 -10z"/>
<path d="M7100 4085 c-74 -34 -110 -87 -110 -164 0 -86 40 -119 203 -166 90
-27 117 -46 117 -87 0 -66 -131 -73 -249 -15 l-51 26 -11 -22 c-7 -12 -19 -32
-26 -44 -14 -21 -13 -24 19 -43 92 -56 267 -72 351 -31 72 35 108 113 87 192
-15 53 -58 85 -158 115 -126 37 -142 45 -158 69 -22 33 -1 72 46 86 45 14 130
-2 175 -31 l29 -19 23 37 c12 20 23 42 23 48 0 6 -24 22 -52 34 -69 30 -206
38 -258 15z"/>
<path d="M7900 3968 c0 -73 -3 -204 -7 -291 l-6 -159 160 4 c154 3 161 4 218
33 102 52 151 149 143 281 -8 125 -78 215 -196 250 -28 9 -95 14 -179 14
l-133 0 0 -132z m316 6 c43 -31 65 -67 75 -119 16 -88 -23 -185 -91 -220 -19
-10 -58 -15 -110 -15 l-80 0 0 191 0 191 89 -4 c71 -2 95 -7 117 -24z"/>
<path d="M8733 4076 c-153 -73 -216 -253 -140 -402 88 -173 334 -209 469 -68
134 140 100 361 -70 461 -36 22 -61 27 -126 30 -70 4 -88 1 -133 -21z m161
-77 c91 -25 143 -107 133 -211 -9 -106 -76 -173 -172 -172 -61 0 -105 22 -142
71 -23 30 -28 48 -31 108 -7 124 45 190 168 214 3 0 23 -4 44 -10z"/>
<path d="M9620 3958 c0 -73 -3 -204 -7 -290 l-6 -158 61 0 62 0 0 120 0 120
120 0 120 0 0 45 0 45 -120 0 -120 0 0 75 0 75 145 0 145 0 0 50 0 50 -200 0
-200 0 0 -132z"/>
<path d="M10190 3958 c0 -73 -3 -204 -7 -290 l-6 -158 61 0 62 0 0 100 0 100
58 0 59 0 62 -100 62 -100 66 0 65 0 -14 23 c-8 12 -38 59 -67 104 l-52 82 45
44 c95 96 69 242 -54 305 -40 20 -58 22 -192 22 l-148 0 0 -132z m308 9 c30
-32 37 -78 18 -115 -23 -44 -44 -52 -135 -52 l-81 0 0 95 0 95 88 0 c79 0 91
-2 110 -23z"/>
<path d="M10850 3958 c0 -73 -3 -204 -7 -290 l-6 -158 61 0 62 0 0 290 0 290
-55 0 -55 0 0 -132z"/>
<path d="M11303 4066 c-153 -73 -216 -253 -140 -402 88 -173 334 -209 469 -68
134 140 100 361 -70 461 -36 22 -61 27 -126 30 -70 4 -88 1 -133 -21z m161
-77 c91 -25 143 -107 133 -211 -9 -106 -76 -173 -172 -172 -61 0 -105 22 -142
71 -23 30 -28 48 -31 108 -7 124 45 190 168 214 3 0 23 -4 44 -10z"/>
<path d="M4080 2745 l0 -195 25 0 c24 0 25 2 25 70 l0 70 50 0 50 0 45 -70
c36 -57 50 -70 71 -70 17 0 23 4 18 13 -5 6 -25 39 -45 71 l-37 59 33 32 c43
39 52 77 34 129 -23 66 -63 86 -175 86 l-94 0 0 -195z m211 126 c27 -33 25
-86 -6 -116 -21 -22 -33 -25 -90 -25 l-65 0 0 86 0 86 71 -4 c60 -3 74 -8 90
-27z"/>
<path d="M4655 2933 c-30 -8 -84 -52 -106 -86 -42 -70 -33 -169 23 -233 40
-45 77 -64 128 -64 56 0 99 20 137 63 63 72 67 174 10 249 -51 66 -115 90
-192 71z m125 -61 c76 -56 79 -184 5 -252 -21 -20 -37 -25 -80 -25 -46 0 -58
4 -84 29 -38 37 -55 86 -48 143 12 109 124 165 207 105z"/>
<path d="M5020 2920 c0 -17 8 -19 68 -22 l67 -3 3 -172 c2 -165 3 -173 22
-173 19 0 20 7 20 175 l0 175 70 0 c63 0 70 2 70 20 0 19 -7 20 -160 20 -152
0 -160 -1 -160 -20z"/>
<path d="M5577 2933 c-4 -6 -130 -310 -154 -370 -3 -8 4 -13 20 -13 21 0 28 9
47 55 l23 56 85 -3 85 -3 20 -52 c16 -43 24 -53 43 -53 13 0 24 3 23 8 0 4
-35 90 -77 192 -52 123 -82 186 -94 188 -9 2 -18 -1 -21 -5z m57 -146 l34 -87
-73 0 -73 0 36 90 c19 49 37 88 39 87 2 -2 18 -43 37 -90z"/>
<path d="M6180 2745 l0 -195 25 0 c24 0 25 2 25 69 l0 69 81 4 c76 3 82 5 110
36 38 42 45 76 28 126 -23 66 -63 86 -175 86 l-94 0 0 -195z m205 130 c17 -16
25 -35 25 -60 0 -25 -8 -44 -25 -60 -21 -22 -33 -25 -90 -25 l-65 0 0 85 0 85
65 0 c57 0 69 -3 90 -25z"/>
<path d="M6717 2933 c-4 -6 -130 -310 -154 -370 -3 -8 4 -13 20 -13 21 0 28 9
47 55 l23 56 85 -3 85 -3 20 -52 c16 -43 24 -53 43 -53 13 0 24 3 23 8 0 4
-35 90 -77 192 -52 123 -82 186 -94 188 -9 2 -18 -1 -21 -5z m57 -146 l34 -87
-73 0 -73 0 36 90 c19 49 37 88 39 87 2 -2 18 -43 37 -90z"/>
<path d="M7080 2745 l0 -195 25 0 c24 0 25 2 25 70 l0 70 50 0 50 0 45 -70
c36 -57 50 -70 71 -70 17 0 23 4 18 13 -5 6 -25 39 -45 71 l-37 59 33 32 c43
39 52 77 34 129 -23 66 -63 86 -175 86 l-94 0 0 -195z m211 126 c27 -33 25
-86 -6 -116 -21 -22 -33 -25 -90 -25 l-65 0 0 86 0 86 71 -4 c60 -3 74 -8 90
-27z"/>
<path d="M7667 2933 c-4 -6 -130 -310 -154 -370 -3 -8 4 -13 20 -13 21 0 28 9
47 55 l23 56 85 -3 85 -3 20 -52 c16 -43 24 -53 43 -53 13 0 24 3 23 8 0 4
-35 90 -77 192 -52 123 -82 186 -94 188 -9 2 -18 -1 -21 -5z m57 -146 l34 -87
-73 0 -73 0 36 90 c19 49 37 88 39 87 2 -2 18 -43 37 -90z"/>
<path d="M8030 2745 l0 -195 25 0 25 0 0 195 0 195 -25 0 -25 0 0 -195z"/>
<path d="M8280 2745 l0 -195 108 0 c89 0 112 3 139 20 57 34 61 122 8 166 -26
20 -26 20 -6 39 46 41 30 134 -25 155 -14 6 -70 10 -125 10 l-99 0 0 -195z
m210 135 c24 -24 26 -67 3 -92 -13 -14 -31 -18 -90 -18 l-73 0 0 65 0 65 70 0
c57 0 74 -4 90 -20z m19 -176 c27 -35 26 -59 -4 -89 -21 -22 -33 -25 -100 -25
l-75 0 0 70 0 70 79 0 c74 0 81 -2 100 -26z"/>
<path d="M8867 2933 c-4 -6 -130 -310 -154 -370 -3 -8 4 -13 20 -13 21 0 28 9
47 55 l23 56 85 -3 85 -3 20 -52 c16 -43 24 -53 43 -53 13 0 24 3 23 8 0 4
-35 90 -77 192 -52 123 -82 186 -94 188 -9 2 -18 -1 -21 -5z m57 -146 l34 -87
-73 0 -73 0 36 90 c19 49 37 88 39 87 2 -2 18 -43 37 -90z"/>
<path d="M9230 2745 l0 -195 25 0 24 0 3 146 3 145 118 -145 c79 -98 124 -146
137 -146 19 0 20 8 20 195 l0 195 -25 0 -24 0 -3 -150 -3 -150 -119 150 c-76
95 -126 150 -138 150 -17 0 -18 -13 -18 -195z"/>
<path d="M9887 2933 c-4 -6 -130 -310 -154 -370 -3 -8 4 -13 20 -13 21 0 28 9
47 55 l23 56 85 -3 85 -3 20 -52 c16 -43 24 -53 43 -53 13 0 24 3 23 8 0 4
-35 90 -77 192 -52 123 -82 186 -94 188 -9 2 -18 -1 -21 -5z m57 -146 l34 -87
-73 0 -73 0 36 90 c19 49 37 88 39 87 2 -2 18 -43 37 -90z"/>
</g>
</svg>
